# xmcd CD database file
#
# Track frame offsets:
#	150
#	13480
#	30430
#	45792
#	63367
#	76270
#	87135
#	105517
#	121732
#	133715
#
# Disc length: 2057 seconds
#
# Revision: 0
# Processed by: cddbd v1.5.2PL0 Copyright (c) Steve Scherf et al.
# Submitted via: CDex 1.70beta2
#
DISCID=6d08070a
DTITLE=Frank Blues Trio - Supernatural
DYEAR=1994
DGENRE=Blues
TTITLE0=Don't Touch That Dial
TTITLE1=Going So Good
TTITLE2=She's So Fine
TTITLE3=Supernatura;
TTITLE4=Walk Away From You
TTITLE5=Charlatan
TTITLE6=Feel So Good
TTITLE7=So Many Things
TTITLE8=New Day Dawning
TTITLE9=Let Me Go
EXTD=YEAR: 1994
EXTT0=
EXTT1=
EXTT2=
EXTT3=
EXTT4=
EXTT5=
EXTT6=
EXTT7=
EXTT8=
EXTT9=
PLAYORDER=
